<?xml version="1.0" standalone="no"?><!DOCTYPE svg PUBLIC "-//W3C//DTD SVG 1.1//EN" "http://www.w3.org/Graphics/SVG/1.1/DTD/svg11.dtd"><svg t="1529770228354" class="icon" style="" viewBox="0 0 1024 1024" version="1.1" xmlns="http://www.w3.org/2000/svg" p-id="2102" xmlns:xlink="http://www.w3.org/1999/xlink" width="32" height="32"><defs><style type="text/css"></style></defs><path d="M280 920.8c-5 0-9-4-9-9V608.1c-9.4-12.4-18.7-24.5-28.1-35.2-45.2-51.7-70.1-118-70.1-186.8 0-75.9 29.5-147.2 83.2-200.8s125-83.2 200.8-83.2c75.7 0 137.4 16.8 183.6 49.9 58.3 41.8 90.6 109 95.9 199.7 6.4 18.1 69.2 104.5 108.4 156.2 2.6 2.4 3.8 6.1 2.9 9.6-1.9 7.8-11.2 8.9-17.3 9.7-7.9 1-20 1.6-35.9 1.7 0.3 33.5-0.5 75.3-1.4 115.7-0.3 15.6-0.6 30.3-0.8 44.2-0.4 26.4-21.4 47.4-47.8 47.9-6.6 0.1-14.1 0.2-22.1 0.2-31 0-65.9-0.8-94.1-1.4-9-0.2-17.1-0.4-24-0.5v176.7c0 5-4 9-9 9H280z" fill="#FC6B79" p-id="2103"></path><path d="M456.9 111.1c125.8 0 259.7 47.9 270.6 242.3 6.8 23.9 110.8 160.9 110.8 160.9s10.7 5.7-52.9 5.7c0.8 47.1-1.2 115.8-2.1 168.7-0.3 21.4-17.6 38.7-39 39-6.9 0.1-14.3 0.2-22 0.2-45.8 0-101.6-1.7-127-2v185.9H280V605.1c-10.2-13.5-20.2-26.6-30.3-38.1-42.2-48.3-67.8-111.6-67.8-180.9 0-151.9 123.1-275 275-275m0-18c-39.5 0-77.9 7.7-114.1 23-34.9 14.8-66.2 35.9-93.1 62.8-26.9 26.9-48 58.2-62.8 93.1-15.3 36.1-23 74.5-23 114.1 0 36.1 6.5 71.3 19.3 104.7 12.3 32.3 30.2 61.9 53 88 8.6 9.9 17.2 20.9 25.9 32.3v300.6c0 9.9 8.1 18 18 18h315.2c9.9 0 18-8.1 18-18V744.2c4.6 0.1 9.5 0.2 14.8 0.3 28.2 0.6 63.2 1.4 94.3 1.4 8.1 0 15.6-0.1 22.3-0.2 15-0.2 29.2-6.2 39.8-16.9 10.6-10.6 16.6-24.8 16.9-39.8 0.2-13.8 0.5-28.6 0.8-44.2 0.7-37 1.5-75.1 1.4-107 12-0.3 21.2-0.8 28-1.7 4.8-0.6 8.5-1.4 11.4-2.4 9.5-3.4 12.5-10.2 13.5-14 1.6-6.4-0.3-13.1-4.8-17.7-5.1-6.7-27.9-36.9-51.1-69.1-43.4-60.1-53-78.2-55.2-83.1-5.7-92.8-39.2-161.8-99.5-205.1-47.9-34.2-111.5-51.6-189-51.6z" fill="#330867" p-id="2104"></path><path d="M280 829.6v82.2h315.2v-82.2s-157.6-62.4-157.6 0-157.6 0-157.6 0z" fill="#DD365E" p-id="2105"></path><path d="M460.2 568.8c-32 0-62-7.8-84.7-21.9-23.1-14.4-35.8-33.6-35.8-54.3 0-20.6 12.7-39.9 35.8-54.3 22.7-14.1 52.8-21.9 84.7-21.9s62 7.8 84.7 21.9c23.1 14.4 35.8 33.6 35.8 54.3 0 20.6-12.7 39.9-35.8 54.3-22.6 14.2-52.7 21.9-84.7 21.9z" fill="#FFE08A" p-id="2106"></path><path d="M460.2 419.6c64.9 0 117.6 32.7 117.6 73.1 0 40.4-52.6 73.1-117.6 73.1-64.9 0-117.6-32.7-117.6-73.1 0.1-40.4 52.7-73.1 117.6-73.1m0-6c-32.5 0-63.2 7.9-86.3 22.3-24 14.9-37.3 35.1-37.3 56.8 0 21.7 13.2 41.9 37.3 56.8 23.1 14.4 53.8 22.3 86.3 22.3s63.2-7.9 86.3-22.3c24-14.9 37.3-35.1 37.3-56.8 0-21.7-13.2-41.9-37.3-56.8-23.1-14.4-53.7-22.3-86.3-22.3z" fill="#330867" p-id="2107"></path><path d="M460.2 532.1c-32 0-62-7.8-84.7-21.9-23.1-14.4-35.8-33.6-35.8-54.3s12.7-39.9 35.8-54.3c22.7-14.1 52.8-21.9 84.7-21.9s62 7.8 84.7 21.9c23.1 14.4 35.8 33.6 35.8 54.3 0 20.6-12.7 39.9-35.8 54.3-22.6 14.1-52.7 21.9-84.7 21.9z" fill="#FFE08A" p-id="2108"></path><path d="M460.2 382.8c64.9 0 117.6 32.7 117.6 73.1S525.2 529 460.2 529c-64.9 0-117.6-32.7-117.6-73.1s52.7-73.1 117.6-73.1m0-6c-32.5 0-63.2 7.9-86.3 22.3-24 14.9-37.3 35.1-37.3 56.8s13.2 41.9 37.3 56.8c23.1 14.4 53.8 22.3 86.3 22.3s63.2-7.9 86.3-22.3c24-14.9 37.3-35.1 37.3-56.8s-13.2-41.9-37.3-56.8c-23.1-14.3-53.7-22.3-86.3-22.3z" fill="#330867" p-id="2109"></path><path d="M460.2 495.3c-32 0-62-7.8-84.7-21.9-23.1-14.4-35.8-33.6-35.8-54.3 0-20.6 12.7-39.9 35.8-54.3 22.7-14.1 52.8-21.9 84.7-21.9s62 7.8 84.7 21.9c23.1 14.4 35.8 33.6 35.8 54.3 0 20.6-12.7 39.9-35.8 54.3-22.6 14.2-52.7 21.9-84.7 21.9z" fill="#FFE08A" p-id="2110"></path><path d="M460.2 346.1c64.9 0 117.6 32.7 117.6 73.1 0 40.4-52.6 73.1-117.6 73.1-64.9 0-117.6-32.7-117.6-73.1 0.1-40.4 52.7-73.1 117.6-73.1m0-6c-32.5 0-63.2 7.9-86.3 22.3-24 14.9-37.3 35.1-37.3 56.8s13.2 41.9 37.3 56.8c23.1 14.4 53.8 22.3 86.3 22.3s63.2-7.9 86.3-22.3c24-14.9 37.3-35.1 37.3-56.8s-13.2-41.9-37.3-56.8c-23.1-14.4-53.7-22.3-86.3-22.3z" fill="#330867" p-id="2111"></path><path d="M460.2 458.6c-32 0-62-7.8-84.7-21.9-23.1-14.4-35.8-33.6-35.8-54.3s12.7-39.9 35.8-54.3c22.7-14.1 52.8-21.9 84.7-21.9s62 7.8 84.7 21.9c23.1 14.4 35.8 33.6 35.8 54.3s-12.7 39.9-35.8 54.3c-22.6 14.1-52.7 21.9-84.7 21.9z" fill="#FFE08A" p-id="2112"></path><path d="M460.2 309.4c64.9 0 117.6 32.7 117.6 73.1s-52.6 73.1-117.6 73.1c-64.9 0-117.6-32.7-117.6-73.1s52.7-73.1 117.6-73.1m0-6c-32.5 0-63.2 7.9-86.3 22.3-24 14.9-37.3 35.1-37.3 56.8 0 21.7 13.2 41.9 37.3 56.8 23.1 14.4 53.8 22.3 86.3 22.3s63.2-7.9 86.3-22.3c24-14.9 37.3-35.1 37.3-56.8 0-21.7-13.2-41.9-37.3-56.8-23.1-14.4-53.7-22.3-86.3-22.3z" fill="#330867" p-id="2113"></path><path d="M460.2 421.9c-32 0-62-7.8-84.7-21.9-23.1-14.4-35.8-33.6-35.8-54.3s12.7-39.9 35.8-54.3c22.7-14.1 52.8-21.9 84.7-21.9s62 7.8 84.7 21.9c23.1 14.4 35.8 33.6 35.8 54.3S568.1 385.6 545 400c-22.7 14.1-52.8 21.9-84.8 21.9z" fill="#FFE08A" p-id="2114"></path><path d="M460.2 272.6c64.9 0 117.6 32.7 117.6 73.1s-52.6 73.1-117.6 73.1c-64.9 0-117.6-32.7-117.6-73.1s52.7-73.1 117.6-73.1m0-6c-32.5 0-63.2 7.9-86.3 22.3-24 14.9-37.3 35.1-37.3 56.8s13.2 41.9 37.3 56.8c23.1 14.4 53.8 22.3 86.3 22.3s63.2-7.9 86.3-22.3c24-14.9 37.3-35.1 37.3-56.8s-13.2-41.9-37.3-56.8c-23.1-14.3-53.7-22.3-86.3-22.3z" fill="#330867" p-id="2115"></path><path d="M460.2 385.1c-32 0-62-7.8-84.7-21.9-23.1-14.4-35.8-33.6-35.8-54.3 0-20.6 12.7-39.9 35.8-54.3 22.7-14.1 52.8-21.9 84.7-21.9s62 7.8 84.7 21.9c23.1 14.4 35.8 33.6 35.8 54.3s-12.7 39.9-35.8 54.3c-22.6 14.2-52.7 21.9-84.7 21.9z" fill="#FFE08A" p-id="2116"></path><path d="M460.2 235.9c64.9 0 117.6 32.7 117.6 73.1s-52.6 73.1-117.6 73.1c-64.9 0-117.6-32.7-117.6-73.1s52.7-73.1 117.6-73.1m0-6c-32.5 0-63.2 7.9-86.3 22.3-24 14.9-37.3 35.1-37.3 56.8s13.2 41.9 37.3 56.8c23.1 14.4 53.8 22.3 86.3 22.3s63.2-7.9 86.3-22.3c24-14.9 37.3-35.1 37.3-56.8s-13.2-41.9-37.3-56.8c-23.1-14.4-53.7-22.3-86.3-22.3z" fill="#330867" p-id="2117"></path><path d="M460.2 348.4c-32 0-62-7.8-84.7-21.9-23.1-14.4-35.8-33.6-35.8-54.3 0-20.6 12.7-39.9 35.8-54.3 22.7-14.1 52.8-21.9 84.7-21.9s62 7.8 84.7 21.9c23.1 14.4 35.8 33.6 35.8 54.3s-12.7 39.9-35.8 54.3c-22.6 14.1-52.7 21.9-84.7 21.9z" fill="#FFE08A" p-id="2118"></path><path d="M460.2 199.1c64.9 0 117.6 32.7 117.6 73.1s-52.6 73.1-117.6 73.1c-64.9 0-117.6-32.7-117.6-73.1s52.7-73.1 117.6-73.1m0-6c-32.5 0-63.2 7.9-86.3 22.3-24 14.9-37.3 35.1-37.3 56.8 0 21.7 13.2 41.9 37.3 56.8 23.1 14.4 53.8 22.3 86.3 22.3s63.2-7.9 86.3-22.3c24-14.9 37.3-35.1 37.3-56.8 0-21.7-13.2-41.9-37.3-56.8-23.1-14.3-53.7-22.3-86.3-22.3z" fill="#330867" p-id="2119"></path><path d="M454.2 213.3h8.2l0.1 7.5c8 0.4 14.6 1.9 19.8 4.7 5.9 3 10 8.3 12.2 15.9h-15.4c-1.1-4.5-3.6-7.7-7.2-9.5-2.4-1.3-5.5-2.1-9.3-2.4l0.3 24.4c8.4 2.4 15 4.3 19.5 5.7 11.1 4.7 17.3 11.6 18.3 20.8 1.1 9.6-2.5 17.2-11 22.6-6.7 3.9-15.4 6.2-26.1 6.9l0.2 14.2h-11.3l0.2-14.2c-11.8-0.6-20.7-3.6-26.6-9-6.5-5.7-9.5-14.3-9.3-25.2h17.3c0.2 7.3 2.1 12.6 5.8 15.7 2.9 2.6 7.2 4.1 13 4.7l0.5-32.3-17.2-5c-10.3-4.3-14.9-10.6-14-18.5 0.7-6.8 4.8-11.7 12-15.1 5.3-2.7 11.9-4.1 19.8-4.4l0.2-7.5z m-0.6 38l0.3-21.8c-3.8 0.2-7 0.9-9.6 2.2-4 1.7-6.1 4.6-6.3 8.6-0.3 4.4 4.7 8 15 10.9l0.6 0.1z m9.5 15.2l0.4 29.6c5.3-0.6 9.8-1.9 13.4-3.9 4.6-2.9 6.8-6.7 6.5-11.3-0.4-6.1-6.2-10.6-17.4-13.6l-2.9-0.8z" fill="#330867" p-id="2120"></path><path d="M507.970809 526.545891a90 90 0 1 0 166.298316-68.883017 90 90 0 1 0-166.298316 68.883017Z" fill="#FFE08A" p-id="2121"></path><path d="M591.1 405.1c48.1 0 87 39 87 87 0 48.1-39 87-87 87-48.1 0-87-39-87-87 0-48.1 39-87 87-87m0-6c-51.3 0-93 41.7-93 93s41.7 93 93 93 93-41.7 93-93-41.7-93-93-93z" fill="#330867" p-id="2122"></path><path d="M544.2 440.1h21.4l25.5 49.8 25.5-49.8H638L606.3 497h21.6v10.1h-27.2l-0.2 0.2v13.9h27.4v10.1h-27.4v24.6h-18.8v-24.6h-27.2v-10.1h27.2v-13.9l-0.2-0.2h-27.1V497h21.4l-31.6-56.9z" fill="#330867" p-id="2123"></path></svg>